<svg xmlns="http://www.w3.org/2000/svg" xmlns:xlink="http://www.w3.org/1999/xlink" style="vertical-align:-7.255ex" width="36.19ex" height="14.009ex" viewBox="0 -2908.2 15581.7 6031.8"><defs><path id="h" stroke-width="1" d="M42 0h-2Q26 0 26 11q0 4 3 16 4 14 7 16t19 3q86 3 135 52 10 10 116 126t105 118Q302 620 297 625q-9 11-63 12h-28q-6 6-6 8t2 19q4 13 10 19h14q34-2 121-2h61q28 0 45 1t20 0q17 0 17-11 0-1-2-13-4-15-7-18t-16-3q-31-3-54-17l77-194 53 59q105 113 105 125 0 18-24 25-5 0-13 2-15 0-15 11 0 2 2 16 4 13 10 19h37q24 0 54-2t41-1q90 0 99 3h8q7-7 7-11-2-25-12-35h-16q-34-1-61-9t-41-17-24-18l-11-9q0 1-95-104l-87-96q0-1 31-80t65-162 37-86q10-9 61-10 35 0 35-9 0-2-2-14-4-16-7-19t-14-3h-33q-30 0-89 1h-93q-32 0-35-1-17 0-17 9 0 1 2 15 2 10 4 14t5 5 9 2 16 1 26 7q17 8 17 10-1 0-47 117l-47 118Q241 95 236 84q-4-8-4-12 0-19 29-25h6q5 0 6-1h4q1 0 3-1t3-3 1-7q0-9-2-16-3-13-6-15t-15-3h-18q-15 0-42 1t-59 0Q64 2 42 0z"/><path id="a" stroke-width="1" d="M21 287q1 3 2 8t5 22 10 31 15 33 20 30 26 22 33 9q29 0 51-12t31-22 11-20q2-6 3-6t8 7q48 52 111 52h3q48 0 72-41 8-19 8-37 0-30-13-48t-26-23-25-4q-20 0-32 11t-12 29q0 48 56 64-22 13-36 13-56 0-103-74-10-16-15-33t-34-133Q156 25 151 16q-13-27-43-27-13 0-21 6T76 7t-2 10q0 13 40 172t40 177q0 39-26 39-21 0-36-28t-24-61-11-36q-2-2-16-2H27q-6 6-6 9z"/><path id="c" stroke-width="1" d="M61 748q3 2 428 2h424l41-110q11-31 22-61t17-46 6-17h-20l-20 1q-23 62-73 104t-109 61q-53 18-122 23t-219 5H319q-136 0-136-1 3-3 165-225t163-225q6-9 2-15l-23-28q-24-28-70-82T330 27L149-187q0-1 213-1h74q48 0 70-1 173 0 272 27T936-43q10 16 23 49h40l-86-255-424-1q-424 0-427 2-6 2-6 9 0 5 62 78 68 80 127 150l183 217q0 1-186 256L57 717l-1 11q0 16 5 20z"/><path id="d" stroke-width="1" d="M184 600q0 24 19 42t44 19q18 0 30-12t13-30q0-23-20-42t-44-20q-15 0-28 10t-14 33zM21 287q0 8 9 31t24 51 44 51 60 22q39 0 65-23t27-62q0-17-14-56t-40-105-42-113q-5-22-5-32 0-25 17-25 9 0 19 3t23 14 27 35 25 59q3 12 5 14t17 2q20 0 20-10 0-8-9-31t-25-51-45-50-62-22q-32 0-59 21T74 74q0 17 5 32t43 114q38 101 44 121t7 39q0 24-17 24h-2q-30 0-55-33t-38-84q-1-1-2-3t-1-3-2-2-3-1-4 0-8 0H27q-6 6-6 9z"/><path id="e" stroke-width="1" d="M213 578l-13-5q-14-5-40-10t-58-7H83v46h19q47 2 87 15t56 24 28 22q2 3 12 3 9 0 17-6V361l1-300q7-7 12-9t24-4 62-2h26V0h-11q-21 3-159 3-136 0-157-3H88v46h64q16 0 25 1t16 3 8 2 6 5 6 4v517z"/><path id="f" stroke-width="1" d="M21 287q1 6 3 16t12 38 20 47 33 37 46 17q36 0 60-18t30-34 6-21q0-2 1-2l11 11q61 64 139 64 54 0 87-27t34-79-38-157-38-127q0-26 17-26 6 0 9 1 29 5 52 38t35 80q2 8 20 8 20 0 20-8 0-1-4-15-8-29-22-57t-46-56-69-27q-47 0-68 27t-21 56q0 19 36 120t37 152q0 59-44 59h-5q-86 0-145-101l-7-12-33-134Q156 26 151 16q-13-27-43-27-13 0-21 6T76 7t-2 10q0 13 38 163t40 163q1 5 1 23 0 39-24 39-38 0-63-100-6-20-6-21-2-6-19-6H27q-6 6-6 9z"/><path id="g" stroke-width="1" d="M94 250q0 69 10 131t23 107 37 88 38 67 42 52 33 34 25 21h17q14 0 14-9 0-3-17-21t-41-53-49-86-42-138-17-193 17-192 41-139 49-86 42-53 17-21q0-9-15-9h-16l-28 24q-94 85-137 212T94 250z"/><path id="b" stroke-width="1" d="M56 347q0 13 14 20h637q15-8 15-20 0-11-14-19l-318-1H72q-16 5-16 20zm0-194q0 15 16 20h636q14-10 14-20 0-13-15-20H70q-14 7-14 20z"/><path id="i" stroke-width="1" d="M84 237v13l14 20h581q15-8 15-20t-15-20H98q-14 7-14 20z"/><path id="j" stroke-width="1" d="M69 544v46h361v-46H69z"/><path id="k" stroke-width="1" d="M60 749l4 1h22l28-24q94-85 137-212t43-264q0-68-10-131T261 12t-37-88-38-67-41-51-32-33-23-19l-4-4H63q-3 0-5 3t-3 9q1 1 11 13Q221-64 221 250T66 725q-10 12-11 13 0 8 5 11z"/><path id="l" stroke-width="1" d="M66 637H49q-5 0-10 1t-7 3-2 6 3 17 9 18q2 1 14 1 48-3 109-3 123 0 141 3h10q6-6 6-9t-2-18q-4-13-10-19h-12q-56 0-56-13 0-5 50-147t51-144l3 3q4 4 12 13t21 24 32 37 43 51q92 107 107 126t16 31q0 16-32 19-17 0-17 10 0 2 2 14 3 15 5 18t14 4q2 0 29-1t79-2q27 0 56 1t33 1q17 0 17-9 0-4-3-16t-5-14q-2-6-21-6-72-5-117-50-9-9-140-163L348 273l-26-104Q295 62 295 57q0-11 68-11 16 0 21-1t6-10q0-2-2-12-4-17-6-19t-16-3h-42q-37 0-92 1h-94q-32 0-36-1-18 0-18 8 0 5 3 15l2 6q1 3 1 5t1 4 2 3 3 2 5 1 6 0 9 1 13 0q39 1 51 4t18 13q3 5 29 108l25 103-123 349-2 2-2 2q-1 1-3 2t-4 2-5 2-8 1-9 1-13 1-17 1z"/><path id="n" stroke-width="1" d="M109 429q-27 0-43 18t-16 44q0 71 53 123t132 52q91 0 152-56t62-145q0-43-20-82t-48-68-80-74q-36-31-100-92l-59-56 76-1q157 0 167 5 7 2 24 89v3h40v-3q-1-3-13-91T421 3V0H50v31q0 7 6 15t30 35q29 32 50 56 9 10 34 37t34 37 29 33 28 34 23 30 21 32 15 29 13 32 7 30 3 33q0 63-34 109t-97 46q-33 0-58-17t-35-33-10-19q0-1 5-1 18 0 37-14t19-46q0-25-16-42t-45-18z"/><path id="m" stroke-width="1" d="M983 1739q5 11 18 11 7 0 12-5t7-12q0-7-278-1489T460-1241q-2-9-21-9h-3q-12 0-12 2l-14 82q-15 83-43 246t-55 319L201 44 137-83l-26 26 76 153 77 151q1-1 105-604 101-601 104-606L727 384q252 1345 256 1355z"/><path id="o" stroke-width="1" d="M78 60q0 24 17 42t43 18q24 0 42-16t19-43q0-25-17-43T139 0 96 17 78 60z"/></defs><g fill="currentColor" stroke="currentColor" stroke-width="0" transform="scale(1 -1)"><use xlink:href="#a"/><use x="729" xlink:href="#b"/><path stroke="none" d="M1905 220h13277v60H1905z"/><g transform="translate(3993 1472)"><use x="46" xlink:href="#c"/><g transform="matrix(.707 0 0 .707 0 -890)"><use xlink:href="#d"/><use x="345" xlink:href="#b"/><use x="1124" xlink:href="#e"/></g><use x="511" y="1344" transform="scale(.707)" xlink:href="#f"/><use x="1148" xlink:href="#g"/><g transform="translate(1538)"><use xlink:href="#h"/><use x="1171" y="-213" transform="scale(.707)" xlink:href="#d"/></g><use x="2933" xlink:href="#i"/><g transform="translate(3933)"><use x="24" xlink:href="#h"/><g transform="translate(15 500)"><use x="-70" transform="scale(.707)" xlink:href="#j"/><use transform="matrix(.94714 0 0 .707 189.43 0)" xlink:href="#j"/><use x="775" transform="scale(.707)" xlink:href="#j"/></g></g><use x="4851" xlink:href="#k"/><use x="5241" xlink:href="#g"/><g transform="translate(5630)"><use xlink:href="#l"/><use x="822" y="-213" transform="scale(.707)" xlink:href="#d"/></g><use x="6778" xlink:href="#i"/><g transform="translate(7779)"><use x="24" xlink:href="#l"/><g transform="translate(118 500)"><use x="-70" transform="scale(.707)" xlink:href="#j"/><use transform="matrix(.70064 0 0 .707 206.564 0)" xlink:href="#j"/><use x="649" transform="scale(.707)" xlink:href="#j"/></g></g><use x="8710" xlink:href="#k"/></g><g transform="translate(1965 -1739)"><use y="-47" xlink:href="#m"/><path stroke="none" d="M1000 1644h5694v60H1000z"/><g transform="translate(1000)"><use x="46" xlink:href="#c"/><g transform="matrix(.707 0 0 .707 0 -890)"><use xlink:href="#d"/><use x="345" xlink:href="#b"/><use x="1124" xlink:href="#e"/></g><use x="511" y="1344" transform="scale(.707)" xlink:href="#f"/><use x="1148" xlink:href="#g"/><g transform="translate(1538)"><use xlink:href="#h"/><use x="1171" y="-213" transform="scale(.707)" xlink:href="#d"/></g><use x="2933" xlink:href="#i"/><g transform="translate(3933)"><use x="24" xlink:href="#h"/><g transform="translate(15 500)"><use x="-70" transform="scale(.707)" xlink:href="#j"/><use transform="matrix(.94714 0 0 .707 189.43 0)" xlink:href="#j"/><use x="775" transform="scale(.707)" xlink:href="#j"/></g></g><g transform="translate(4851)"><use xlink:href="#k"/><use x="550" y="408" transform="scale(.707)" xlink:href="#n"/></g></g><g transform="translate(6695)"><use y="-47" xlink:href="#m"/><path stroke="none" d="M1000 1644h5461v60H1000z"/><g transform="translate(1000)"><use x="46" xlink:href="#c"/><g transform="matrix(.707 0 0 .707 0 -890)"><use xlink:href="#d"/><use x="345" xlink:href="#b"/><use x="1124" xlink:href="#e"/></g><use x="511" y="1344" transform="scale(.707)" xlink:href="#f"/><use x="1148" xlink:href="#g"/><g transform="translate(1538)"><use xlink:href="#l"/><use x="822" y="-213" transform="scale(.707)" xlink:href="#d"/></g><use x="2686" xlink:href="#i"/><g transform="translate(3686)"><use x="24" xlink:href="#l"/><g transform="translate(118 500)"><use x="-70" transform="scale(.707)" xlink:href="#j"/><use transform="matrix(.70064 0 0 .707 206.564 0)" xlink:href="#j"/><use x="649" transform="scale(.707)" xlink:href="#j"/></g></g><g transform="translate(4618)"><use xlink:href="#k"/><use x="550" y="408" transform="scale(.707)" xlink:href="#n"/></g></g></g></g><use x="15303" xlink:href="#o"/></g></svg>