<svg xmlns="http://www.w3.org/2000/svg" xmlns:xlink="http://www.w3.org/1999/xlink" style="vertical-align:-2.13ex" width="45.124ex" height="5.759ex" viewBox="0 -1562.8 19428.5 2479.7"><defs><path id="i" stroke-width="1" d="M94 250q0 69 10 131t23 107 37 88 38 67 42 52 33 34 25 21h17q14 0 14-9 0-3-17-21t-41-53-49-86-42-138-17-193 17-192 41-139 49-86 42-53 17-21q0-9-15-9h-16l-28 24q-94 85-137 212T94 250z"/><path id="a" stroke-width="1" d="M58-216q-33 0-35 30 0 10 50 212t54 208q16 55 55 107 70 86 159 100h8q6 0 10 1 73 0 112-48t39-118q0-57-24-111t-61-91-80-61-79-23h-18q-51 0-83 45l-5 6-27-112q-25-97-29-110t-12-21q-16-14-34-14zm366 538q0 37-17 60t-50 23q-35 0-70-29t-56-76q-14-31-38-130l-17-68q17-76 84-76 38 0 74 36 33 30 55 96t29 108 6 56z"/><path id="c" stroke-width="1" d="M78 35v25l16 43 43 18q28 0 50-25t23-88q0-35-9-68t-21-57-26-41-24-27-13-9q-4 0-13 9t-9 13q0 4 11 16t25 30 26 50 16 73V9l-1-1q-2-1-5-2t-6-3-9-2-12-1q-27 0-44 17z"/><path id="d" stroke-width="1" d="M66 637H49q-5 0-10 1t-7 3-2 6 3 17 9 18q2 1 14 1 48-3 109-3 123 0 141 3h10q6-6 6-9t-2-18q-4-13-10-19h-12q-56 0-56-13 0-5 50-147t51-144l3 3q4 4 12 13t21 24 32 37 43 51q92 107 107 126t16 31q0 16-32 19-17 0-17 10 0 2 2 14 3 15 5 18t14 4q2 0 29-1t79-2q27 0 56 1t33 1q17 0 17-9 0-4-3-16t-5-14q-2-6-21-6-72-5-117-50-9-9-140-163L348 273l-26-104Q295 62 295 57q0-11 68-11 16 0 21-1t6-10q0-2-2-12-4-17-6-19t-16-3h-42q-37 0-92 1h-94q-32 0-36-1-18 0-18 8 0 5 3 15l2 6q1 3 1 5t1 4 2 3 3 2 5 1 6 0 9 1 13 0q39 1 51 4t18 13q3 5 29 108l25 103-123 349-2 2-2 2q-1 1-3 2t-4 2-5 2-8 1-9 1-13 1-17 1z"/><path id="e" stroke-width="1" d="M56 347q0 13 14 20h637q15-8 15-20 0-11-14-19l-318-1H72q-16 5-16 20zm0-194q0 15 16 20h636q14-10 14-20 0-13-15-20H70q-14 7-14 20z"/><path id="f" stroke-width="1" d="M370 305h-21l-36 15-16 38q0 23 15 38 5 5 5 6t-10 2q-26 4-49 4-49 0-80-32-47-47-47-157 0-82 31-129 41-61 110-61 41 0 66 26t36 62q2 8 5 10t16 2h14q6-6 6-9 0-4-4-16t-16-33-29-38-48-31-69-13q-86 0-150 64T34 214q0 104 65 169t151 65 120-27 34-64q0-23-17-37z"/><path id="g" stroke-width="1" d="M28 214q0 95 65 164t157 70q90 0 155-68t66-165q0-95-64-160T250-10q-97 0-159 67T28 214zM250 30q122 0 122 163v57q0 22-1 38t-7 38-16 36-31 28-49 20q-5 1-16 1-30 0-57-12-43-22-56-61t-13-92v-20q0-96 19-135 32-61 105-61z"/><path id="h" stroke-width="1" d="M338 431q6-2 84-2 57 0 81 2h5v-46h-11q-58-4-74-40-2-4-67-173T288-2q-5-9-25-9-19 0-24 9Q99 359 98 364q-5 14-16 17t-39 4H19v46h6l8-1h46q14 0 25-1t18-1q95 0 110 3h8v-46h-14q-39-1-42-15 0-4 51-136l51-132 91 239v8q0 14-10 23t-18 11-14 2h-4v46h7z"/><path id="b" stroke-width="1" d="M42 0h-2Q26 0 26 11q0 4 3 16 4 14 7 16t19 3q86 3 135 52 10 10 116 126t105 118Q302 620 297 625q-9 11-63 12h-28q-6 6-6 8t2 19q4 13 10 19h14q34-2 121-2h61q28 0 45 1t20 0q17 0 17-11 0-1-2-13-4-15-7-18t-16-3q-31-3-54-17l77-194 53 59q105 113 105 125 0 18-24 25-5 0-13 2-15 0-15 11 0 2 2 16 4 13 10 19h37q24 0 54-2t41-1q90 0 99 3h8q7-7 7-11-2-25-12-35h-16q-34-1-61-9t-41-17-24-18l-11-9q0 1-95-104l-87-96q0-1 31-80t65-162 37-86q10-9 61-10 35 0 35-9 0-2-2-14-4-16-7-19t-14-3h-33q-30 0-89 1h-93q-32 0-35-1-17 0-17 9 0 1 2 15 2 10 4 14t5 5 9 2 16 1 26 7q17 8 17 10-1 0-47 117l-47 118Q241 95 236 84q-4-8-4-12 0-19 29-25h6q5 0 6-1h4q1 0 3-1t3-3 1-7q0-9-2-16-3-13-6-15t-15-3h-18q-15 0-42 1t-59 0Q64 2 42 0z"/><path id="j" stroke-width="1" d="M60 749l4 1h22l28-24q94-85 137-212t43-264q0-68-10-131T261 12t-37-88-38-67-41-51-32-33-23-19l-4-4H63q-3 0-5 3t-3 9q1 1 11 13Q221-64 221 250T66 725q-10 12-11 13 0 8 5 11z"/><path id="k" stroke-width="1" d="M184-11q-68 0-110 45T31 147q0 100 73 186t170 97q1 1 140 1h138q1-1 3-2t4-2 3-2 3-3 2-2 2-4 1-4 1-5 1-6q0-44-65-44h-17q-10 0-14 1h-60l5-10q18-38 18-85 0-110-80-192T184-11zm177 289q0 80-85 80-124 0-161-174-1-4-1-6-8-37-8-61 0-50 25-70t57-21q54 0 99 47 29 30 47 80t22 80 5 45z"/><path id="l" stroke-width="1" d="M492 213q-20 0-20 13 0 4 5 24t5 35q0 31-21 38t-97 7h-52q-1-2-35-138T243 52q0-4 11-4t80-2q94 0 124 2t60 13q49 16 81 56t71 131q10 22 13 24 7 2 15 2 20 0 20-13Q613 7 608 2q-3-2-286-2H133Q31 0 31 11q0 2 3 14 4 16 8 18t23 3q27 0 60 3 14 3 19 12 2 5 71 281t70 280q0 7-4 7-8 3-53 5h-31q-6 6-6 8t2 17q4 17 10 21h554q7-4 7-11 0-5-13-112t-14-110q-2-7-20-7h-12q-7 5-7 13l3 23q3 24 3 52 0 30-7 50t-19 31-35 16-47 7-64 2h-47q-88-1-93-3-4-2-6-9-1-3-31-123t-31-122q23-1 48-1h26q66 0 91 15t45 81q4 16 6 18t17 3h8q3 0 5-1t2-1 2-4 3-4l-33-132q-33-133-36-135-3-3-16-3z"/><path id="m" stroke-width="1" d="M118-250V750h137v-40h-97v-920h97v-40H118z"/><path id="n" stroke-width="1" d="M84 237v13l14 20h581q15-8 15-20t-15-20H98q-14 7-14 20z"/><path id="o" stroke-width="1" d="M58-216q-14 0-24 8t-11 22q0 10 73 302t77 298q13 28 46 28 12-1 20-7t10-12 2-10q0-12-31-134t-33-137q-2-11-2-35v-8q0-73 67-73 9 0 18 1t17 4 15 7 13 7 12 10 11 10 10 12 8 11 9 12l7 10 36 143q36 142 40 151 13 27 43 27 13 0 21-7t11-12 2-10L449 84q-1-5-1-16 0-25 7-33t21-9q9 1 20 9 21 20 41 96 6 20 10 21 2 1 10 1h4q19 0 19-9 0-6-5-27t-20-54-32-50Q510 0 491-8q-8-2-24-2-21 0-38 6t-27 15-17 18-9 15-2 7l-6-6q-6-6-18-15t-26-18-36-16-42-7q-47 0-93 23l-24-97q-21-82-25-95t-12-22q-16-14-34-14z"/><path id="p" stroke-width="1" d="M22 710v40h137V-250H22v40h97v920H22z"/></defs><g fill="currentColor" stroke="currentColor" stroke-width="0" transform="scale(1 -1)"><use xlink:href="#a"/><g transform="matrix(.707 0 0 .707 517 -150)"><use xlink:href="#b"/><use x="852" xlink:href="#c"/><use x="1131" xlink:href="#d"/></g><use x="2234" xlink:href="#e"/><path stroke="none" d="M3411 220h4433v60H3411z"/><g transform="translate(3471 725)"><use xlink:href="#f"/><use x="444" xlink:href="#g"/><use x="945" xlink:href="#h"/><use x="1473" xlink:href="#i"/><use x="1863" xlink:href="#b"/><use x="2715" xlink:href="#c"/><use x="3160" xlink:href="#d"/><use x="3924" xlink:href="#j"/></g><g transform="translate(4384 -686)"><use xlink:href="#k"/><use x="808" y="-213" transform="scale(.707)" xlink:href="#b"/><g transform="translate(1274)"><use xlink:href="#k"/><use x="808" y="-213" transform="scale(.707)" xlink:href="#d"/></g></g><use x="8242" xlink:href="#e"/><g><path stroke="none" d="M9418 220h9611v60H9418z"/><g transform="translate(9478 725)"><use xlink:href="#l"/><use x="764" xlink:href="#m"/><use x="1043" xlink:href="#i"/><use x="1432" xlink:href="#b"/><use x="2507" xlink:href="#n"/><g transform="translate(3507)"><use xlink:href="#o"/><use x="853" y="-213" transform="scale(.707)" xlink:href="#b"/></g><use x="4814" xlink:href="#j"/><use x="5203" xlink:href="#i"/><use x="5593" xlink:href="#d"/><use x="6578" xlink:href="#n"/><g transform="translate(7579)"><use xlink:href="#o"/><use x="853" y="-213" transform="scale(.707)" xlink:href="#d"/></g><use x="8823" xlink:href="#j"/><use x="9212" xlink:href="#p"/></g><g transform="translate(12980 -686)"><use xlink:href="#k"/><use x="808" y="-213" transform="scale(.707)" xlink:href="#b"/><g transform="translate(1274)"><use xlink:href="#k"/><use x="808" y="-213" transform="scale(.707)" xlink:href="#d"/></g></g></g><use x="19149" xlink:href="#c"/></g></svg>