<svg xmlns="http://www.w3.org/2000/svg" xmlns:xlink="http://www.w3.org/1999/xlink" style="vertical-align:-3.13ex" width="39.428ex" height="7.384ex" viewBox="0 -1831.9 16975.9 3179.3"><defs><path id="i" stroke-width="1" d="M42 0h-2Q26 0 26 11q0 4 3 16 4 14 7 16t19 3q86 3 135 52 10 10 116 126t105 118Q302 620 297 625q-9 11-63 12h-28q-6 6-6 8t2 19q4 13 10 19h14q34-2 121-2h61q28 0 45 1t20 0q17 0 17-11 0-1-2-13-4-15-7-18t-16-3q-31-3-54-17l77-194 53 59q105 113 105 125 0 18-24 25-5 0-13 2-15 0-15 11 0 2 2 16 4 13 10 19h37q24 0 54-2t41-1q90 0 99 3h8q7-7 7-11-2-25-12-35h-16q-34-1-61-9t-41-17-24-18l-11-9q0 1-95-104l-87-96q0-1 31-80t65-162 37-86q10-9 61-10 35 0 35-9 0-2-2-14-4-16-7-19t-14-3h-33q-30 0-89 1h-93q-32 0-35-1-17 0-17 9 0 1 2 15 2 10 4 14t5 5 9 2 16 1 26 7q17 8 17 10-1 0-47 117l-47 118Q241 95 236 84q-4-8-4-12 0-19 29-25h6q5 0 6-1h4q1 0 3-1t3-3 1-7q0-9-2-16-3-13-6-15t-15-3h-18q-15 0-42 1t-59 0Q64 2 42 0z"/><path id="a" stroke-width="1" d="M21 287q1 3 2 8t5 22 10 31 15 33 20 30 26 22 33 9q29 0 51-12t31-22 11-20q2-6 3-6t8 7q48 52 111 52h3q48 0 72-41 8-19 8-37 0-30-13-48t-26-23-25-4q-20 0-32 11t-12 29q0 48 56 64-22 13-36 13-56 0-103-74-10-16-15-33t-34-133Q156 25 151 16q-13-27-43-27-13 0-21 6T76 7t-2 10q0 13 40 172t40 177q0 39-26 39-21 0-36-28t-24-61-11-36q-2-2-16-2H27q-6 6-6 9z"/><path id="c" stroke-width="1" d="M213 578l-13-5q-14-5-40-10t-58-7H83v46h19q47 2 87 15t56 24 28 22q2 3 12 3 9 0 17-6V361l1-300q7-7 12-9t24-4 62-2h26V0h-11q-21 3-159 3-136 0-157-3H88v46h64q16 0 25 1t16 3 8 2 6 5 6 4v517z"/><path id="d" stroke-width="1" d="M21 287q1 6 3 16t12 38 20 47 33 37 46 17q36 0 60-18t30-34 6-21q0-2 1-2l11 11q61 64 139 64 54 0 87-27t34-79-38-157-38-127q0-26 17-26 6 0 9 1 29 5 52 38t35 80q2 8 20 8 20 0 20-8 0-1-4-15-8-29-22-57t-46-56-69-27q-47 0-68 27t-21 56q0 19 36 120t37 152q0 59-44 59h-5q-86 0-145-101l-7-12-33-134Q156 26 151 16q-13-27-43-27-13 0-21 6T76 7t-2 10q0 13 38 163t40 163q1 5 1 23 0 39-24 39-38 0-63-100-6-20-6-21-2-6-19-6H27q-6 6-6 9z"/><path id="e" stroke-width="1" d="M84 237v13l14 20h581q15-8 15-20t-15-20H98q-14 7-14 20z"/><path id="f" stroke-width="1" d="M60 948q3 2 605 2h602l58-135q59-138 63-146h-40l-7 14q-21 41-56 78-50 48-111 77t-141 43-151 17-183 4H251l8-11q463-633 465-639 1-2 0-6-3-3-264-302L196-356q0-1 211-1h141q89 0 128-1 136 0 220 5t167 21 141 49 103 87q21 26 41 72h40q0-1-7-21t-25-65-31-84l-58-155-601-1q-602 0-605 2-6 2-6 9 0 2 2 6l533 610q0 1-33 45T452 366 322 544L56 909l-1 15q0 21 5 24z"/><path id="g" stroke-width="1" d="M184 600q0 24 19 42t44 19q18 0 30-12t13-30q0-23-20-42t-44-20q-15 0-28 10t-14 33zM21 287q0 8 9 31t24 51 44 51 60 22q39 0 65-23t27-62q0-17-14-56t-40-105-42-113q-5-22-5-32 0-25 17-25 9 0 19 3t23 14 27 35 25 59q3 12 5 14t17 2q20 0 20-10 0-8-9-31t-25-51-45-50-62-22q-32 0-59 21T74 74q0 17 5 32t43 114q38 101 44 121t7 39q0 24-17 24h-2q-30 0-55-33t-38-84q-1-1-2-3t-1-3-2-2-3-1-4 0-8 0H27q-6 6-6 9z"/><path id="b" stroke-width="1" d="M56 347q0 13 14 20h637q15-8 15-20 0-11-14-19l-318-1H72q-16 5-16 20zm0-194q0 15 16 20h636q14-10 14-20 0-13-15-20H70q-14 7-14 20z"/><path id="j" stroke-width="1" d="M69 544v46h361v-46H69z"/><path id="k" stroke-width="1" d="M184-11q-68 0-110 45T31 147q0 100 73 186t170 97q1 1 140 1h138q1-1 3-2t4-2 3-2 3-3 2-2 2-4 1-4 1-5 1-6q0-44-65-44h-17q-10 0-14 1h-60l5-10q18-38 18-85 0-110-80-192T184-11zm177 289q0 80-85 80-124 0-161-174-1-4-1-6-8-37-8-61 0-50 25-70t57-21q54 0 99 47 29 30 47 80t22 80 5 45z"/><path id="h" stroke-width="1" d="M758-1237v-3l-6-9h-16q-18 0-19 1-6 3-45 49Q237-706 237 251t435 1449q25 30 44 49 2 1 19 1h17q6-6 6-9 0-4-18-28t-51-69-70-107-79-157-77-204Q348 802 348 251q0-493 93-850t303-619q14-19 14-22z"/><path id="l" stroke-width="1" d="M33 1741q0 9 18 9h14q8 0 16-7t38-43q435-493 435-1449 0-958-435-1450-43-51-53-51h-4q-3 0-6 1h-3q-2 0-4-1-16 0-16 11 0 3 17 25t48 64 65 98 75 142 73 183q132 392 132 978 0 151-7 281t-31 299-66 311-115 296-174 278q-17 21-17 25z"/><path id="m" stroke-width="1" d="M66 637H49q-5 0-10 1t-7 3-2 6 3 17 9 18q2 1 14 1 48-3 109-3 123 0 141 3h10q6-6 6-9t-2-18q-4-13-10-19h-12q-56 0-56-13 0-5 50-147t51-144l3 3q4 4 12 13t21 24 32 37 43 51q92 107 107 126t16 31q0 16-32 19-17 0-17 10 0 2 2 14 3 15 5 18t14 4q2 0 29-1t79-2q27 0 56 1t33 1q17 0 17-9 0-4-3-16t-5-14q-2-6-21-6-72-5-117-50-9-9-140-163L348 273l-26-104Q295 62 295 57q0-11 68-11 16 0 21-1t6-10q0-2-2-12-4-17-6-19t-16-3h-42q-37 0-92 1h-94q-32 0-36-1-18 0-18 8 0 5 3 15l2 6q1 3 1 5t1 4 2 3 3 2 5 1 6 0 9 1 13 0q39 1 51 4t18 13q3 5 29 108l25 103-123 349-2 2-2 2q-1 1-3 2t-4 2-5 2-8 1-9 1-13 1-17 1z"/><path id="n" stroke-width="1" d="M78 60q0 24 17 42t43 18q24 0 42-16t19-43q0-25-17-43T139 0 96 17 78 60z"/></defs><g fill="currentColor" stroke="currentColor" stroke-width="0" transform="scale(1 -1)"><use xlink:href="#a"/><use x="729" xlink:href="#b"/><g transform="translate(1905)"><path stroke="none" d="M0 220h2443v60H0z"/><use x="971" y="676" xlink:href="#c"/><g transform="translate(60 -686)"><use xlink:href="#d"/><use x="822" xlink:href="#e"/><use x="1823" xlink:href="#c"/></g></g><g transform="translate(4636)"><use xlink:href="#f"/><g transform="matrix(.707 0 0 .707 147 -1090)"><use xlink:href="#g"/><use x="345" xlink:href="#b"/><use x="1124" xlink:href="#c"/></g><use x="721" y="1627" transform="scale(.707)" xlink:href="#d"/></g><g transform="translate(6247)"><use xlink:href="#h"/><path stroke="none" d="M912 220h3433v60H912z"/><g transform="translate(972 676)"><use xlink:href="#i"/><use x="1171" y="-213" transform="scale(.707)" xlink:href="#g"/><use x="1395" xlink:href="#e"/><g transform="translate(2395)"><use x="24" xlink:href="#i"/><g transform="translate(15 500)"><use x="-70" transform="scale(.707)" xlink:href="#j"/><use transform="matrix(.94714 0 0 .707 189.43 0)" xlink:href="#j"/><use x="775" transform="scale(.707)" xlink:href="#j"/></g></g></g><g transform="translate(1991 -686)"><use xlink:href="#k"/><use x="808" y="-213" transform="scale(.707)" xlink:href="#i"/></g><use x="4465" xlink:href="#l"/></g><g transform="translate(11672)"><use xlink:href="#h"/><path stroke="none" d="M912 220h3200v60H912z"/><g transform="translate(972 676)"><use xlink:href="#m"/><use x="822" y="-213" transform="scale(.707)" xlink:href="#g"/><use x="1148" xlink:href="#e"/><g transform="translate(2148)"><use x="24" xlink:href="#m"/><g transform="translate(118 500)"><use x="-70" transform="scale(.707)" xlink:href="#j"/><use transform="matrix(.70064 0 0 .707 206.564 0)" xlink:href="#j"/><use x="649" transform="scale(.707)" xlink:href="#j"/></g></g></g><g transform="translate(1906 -686)"><use xlink:href="#k"/><use x="808" y="-213" transform="scale(.707)" xlink:href="#m"/></g><use x="4232" xlink:href="#l"/></g><use x="16697" xlink:href="#n"/></g></svg>